<svg version="1.0" xmlns="http://www.w3.org/2000/svg" width="1556" height="1706.667" viewBox="0 0 1167 1280"><g fill="#f44336"><path d="M927 1.1c-22.9 2.9-47.3 12.4-65.7 25.6-27.2 19.4-46.8 49.4-53.9 82.5-2.5 11.4-2.5 36.9-.1 49.1 9.4 47.2 44.5 86.1 91.8 102.1 16.7 5.6 26 7 45.9 7s29.2-1.4 45.9-7c40-13.5 72.7-44.9 86.4-82.9 5-14.1 7-25.7 7.1-42.5.1-17.6-1.1-25.9-5.9-40.6C1062 43.9 1017.1 8 961.9 1c-9.6-1.2-25.4-1.1-34.9.1z"/><path d="M514.5 191.1c-8 1.2-19.3 6.9-25.2 12.7-4.2 4.1-166.7 218-178 234.2-2.4 3.5-5.4 9.7-6.9 14.3-2.3 6.9-2.7 10-2.7 19.7-.1 10.3.2 12.4 2.9 20 7 20 21.2 32.9 39.4 36.2 12.8 2.2 28.4-2.8 37.8-12.3 2.7-2.7 39.7-51.2 82.3-107.8l77.4-103h44.3l44.3-.1-1.9 2.7c-1.1 1.6-76.9 102.6-168.4 224.6L293.4 754.2l-121.5.1-121.4.2-6.8 2.7c-9.3 3.8-16.4 8.7-23.9 16.6-32.3 34.3-23.2 97.4 17.1 118.6 13.4 7 2.9 6.6 163.1 6.6 154.9 0 154.1 0 170.5-5.1 12.4-3.8 26.4-11.8 33.1-19 1.8-1.9 32.1-40.5 67.4-85.9 35.4-45.4 64.8-83.1 65.5-83.8 1-1.1 16.2 15.4 76.8 83.2 41.7 46.5 75.7 85.2 75.7 86 0 .9-14 72.8-31.1 159.8-22.3 113.7-31.2 161.1-31.6 168.1-2.1 36.3 19.6 68.8 50.8 76.2 30.2 7.1 61.2-12.9 71.8-46.5 1.1-3.6 18-88.6 37.6-189 19.5-100.4 37.6-192.6 40.1-204.9 4-19.6 4.5-23.9 4.6-35.5 0-19.7-4-35.7-12.4-48.6-2.7-4.2-73.1-85.9-132.5-153.7l-5.5-6.2 72.8-96.8c40-53.2 72.8-96.9 72.9-97.1.1-.1 21.1 24 46.7 53.5 25.6 29.6 48.9 56 51.7 58.6 6.3 5.9 17.8 11.5 26 12.7 14.4 2 30.1-3.7 43-15.6 9.8-9.1 161-184.4 164.9-191.2 5.7-10 7.7-18.1 7.6-31.7 0-8.7-.5-13.7-1.8-18-4.9-16.3-15.4-29.3-29.2-36.1-7.7-3.9-7.9-3.9-19.3-3.9-10.4.1-12.2.3-17.4 2.7-3.2 1.5-7.7 4.1-10 5.8-2.4 1.7-32.8 35.8-67.7 76-34.9 40.1-63.8 72.8-64.1 72.7-.4-.1-35.4-40.2-78-89.1-44-50.6-79.6-90.7-82.7-93.1-3-2.4-8-5.5-11.1-7.1-12.7-6.2-3.8-5.8-140.1-6-68.5-.1-127.2.2-130.5.7z"/></g></svg>